<svg width="103" height="116" viewBox="0 0 103 116" fill="none" xmlns="http://www.w3.org/2000/svg">
<mask id="path-1-outside-1_353_519" maskUnits="userSpaceOnUse" x="-1.89062" y="-1.01562" width="107" height="118" fill="black">
<rect fill="white" x="-1.89062" y="-1.01562" width="107" height="118"/>
<path d="M79.5453 115.984L71.723 91.1113H31.2934L23.4711 115.984H0.180077L39.8187 0.847656H63.4613L102.924 115.984H79.5453ZM51.3324 27.7422L37.0062 73.0059H66.098L51.8598 27.7422H51.3324Z"/>
</mask>
<path d="M79.5453 115.984L78.5914 116.284L78.8115 116.984H79.5453V115.984ZM71.723 91.1113L72.677 90.8113L72.4568 90.1113H71.723V91.1113ZM31.2934 91.1113V90.1113H30.5596L30.3394 90.8113L31.2934 91.1113ZM23.4711 115.984V116.984H24.2049L24.425 116.284L23.4711 115.984ZM0.180077 115.984L-0.765457 115.659L-1.2218 116.984H0.180077V115.984ZM39.8187 0.847656V-0.152344H39.1054L38.8732 0.522133L39.8187 0.847656ZM63.4613 0.847656L64.4073 0.523426L64.1757 -0.152344H63.4613V0.847656ZM102.924 115.984V116.984H104.324L103.87 115.66L102.924 115.984ZM51.3324 27.7422V26.7422H50.6L50.379 27.4404L51.3324 27.7422ZM37.0062 73.0059L36.0529 72.7041L35.6409 74.0059H37.0062V73.0059ZM66.098 73.0059V74.0059H67.4609L67.052 72.7058L66.098 73.0059ZM51.8598 27.7422L52.8137 27.4421L52.5935 26.7422H51.8598V27.7422ZM80.4993 115.684L72.677 90.8113L70.7691 91.4113L78.5914 116.284L80.4993 115.684ZM71.723 90.1113H31.2934V92.1113H71.723V90.1113ZM30.3394 90.8113L22.5172 115.684L24.425 116.284L32.2473 91.4113L30.3394 90.8113ZM23.4711 114.984H0.180077V116.984H23.4711V114.984ZM1.12561 116.31L40.7643 1.17318L38.8732 0.522133L-0.765457 115.659L1.12561 116.31ZM39.8187 1.84766H63.4613V-0.152344H39.8187V1.84766ZM62.5154 1.17189L101.978 116.309L103.87 115.66L64.4073 0.523426L62.5154 1.17189ZM102.924 114.984H79.5453V116.984H102.924V114.984ZM50.379 27.4404L36.0529 72.7041L37.9596 73.3076L52.2858 28.0439L50.379 27.4404ZM37.0062 74.0059H66.098V72.0059H37.0062V74.0059ZM67.052 72.7058L52.8137 27.4421L50.9058 28.0423L65.1441 73.3059L67.052 72.7058ZM51.8598 26.7422H51.3324V28.7422H51.8598V26.7422Z" fill="#404040" mask="url(#path-1-outside-1_353_519)"/>
</svg>
