<svg width="89" height="116" viewBox="0 0 89 116" fill="none" xmlns="http://www.w3.org/2000/svg">
<mask id="path-1-outside-1_353_517" maskUnits="userSpaceOnUse" x="-1.45312" y="-1.01562" width="92" height="118" fill="black">
<rect fill="white" x="-1.45312" y="-1.01562" width="92" height="118"/>
<path d="M23.4437 18.6016V56.3945H46.2074C52.5355 56.3945 57.3988 54.6953 60.7973 51.2969C64.1957 47.8984 65.8949 43.3574 65.8949 37.6738C65.8949 31.9316 64.1957 27.332 60.7973 23.875C57.3988 20.3594 52.5355 18.6016 46.2074 18.6016H23.4437ZM46.2074 74.2363H23.4437V115.984H0.328514V0.847656H46.2074C59.391 0.847656 69.7914 4.1875 77.4086 10.8672C85.0844 17.4883 88.9223 26.3945 88.9223 37.5859C88.9223 48.7188 85.1137 57.625 77.4965 64.3047C69.8793 70.9258 59.4496 74.2363 46.2074 74.2363Z"/>
</mask>
<path d="M23.4437 18.6016V17.6016H22.4437V18.6016H23.4437ZM23.4437 56.3945H22.4437V57.3945H23.4437V56.3945ZM60.7973 23.875L60.0782 24.57L60.0841 24.576L60.7973 23.875ZM23.4437 74.2363V73.2363H22.4437V74.2363H23.4437ZM23.4437 115.984V116.984H24.4437V115.984H23.4437ZM0.328514 115.984H-0.671486V116.984H0.328514V115.984ZM0.328514 0.847656V-0.152344H-0.671486V0.847656H0.328514ZM77.4086 10.8672L76.7492 11.6191L76.7554 11.6244L77.4086 10.8672ZM77.4965 64.3047L78.1525 65.0594L78.1558 65.0565L77.4965 64.3047ZM22.4437 18.6016V56.3945H24.4437V18.6016H22.4437ZM23.4437 57.3945H46.2074V55.3945H23.4437V57.3945ZM46.2074 57.3945C52.7136 57.3945 57.8646 55.6437 61.5044 52.004L60.0902 50.5898C56.933 53.7469 52.3575 55.3945 46.2074 55.3945V57.3945ZM61.5044 52.004C65.1242 48.3841 66.8949 43.5706 66.8949 37.6738H64.8949C64.8949 43.1443 63.2672 47.4127 60.0902 50.5898L61.5044 52.004ZM66.8949 37.6738C66.8949 31.7213 65.1261 26.852 61.5104 23.174L60.0841 24.576C63.2653 27.8121 64.8949 32.142 64.8949 37.6738H66.8949ZM61.5163 23.18C57.8782 19.4165 52.7229 17.6016 46.2074 17.6016V19.6016C52.3482 19.6016 56.9194 21.3022 60.0783 24.57L61.5163 23.18ZM46.2074 17.6016H23.4437V19.6016H46.2074V17.6016ZM46.2074 73.2363H23.4437V75.2363H46.2074V73.2363ZM22.4437 74.2363V115.984H24.4437V74.2363H22.4437ZM23.4437 114.984H0.328514V116.984H23.4437V114.984ZM1.32851 115.984V0.847656H-0.671486V115.984H1.32851ZM0.328514 1.84766H46.2074V-0.152344H0.328514V1.84766ZM46.2074 1.84766C59.2231 1.84766 69.3637 5.14251 76.7493 11.619L78.0679 10.1153C70.2191 3.23249 59.5589 -0.152344 46.2074 -0.152344V1.84766ZM76.7554 11.6244C84.1865 18.0344 87.9223 26.6513 87.9223 37.5859H89.9223C89.9223 26.1377 85.9823 16.9422 78.0618 10.11L76.7554 11.6244ZM87.9223 37.5859C87.9223 48.4627 84.2149 57.0831 76.8372 63.5528L78.1558 65.0565C86.0125 58.1669 89.9223 48.9748 89.9223 37.5859H87.9223ZM76.8404 63.55C69.4557 69.969 59.2851 73.2363 46.2074 73.2363V75.2363C59.6141 75.2363 70.3029 71.8826 78.1525 65.0594L76.8404 63.55Z" fill="#404040" mask="url(#path-1-outside-1_353_517)"/>
</svg>
