<svg width="93" height="117" viewBox="0 0 93 117" fill="none" xmlns="http://www.w3.org/2000/svg">
<mask id="path-1-outside-1_353_521" maskUnits="userSpaceOnUse" x="-1.17188" y="-1.01562" width="95" height="119" fill="black">
<rect fill="white" x="-1.17188" y="-1.01562" width="95" height="119"/>
<path d="M23.723 116.072H0.607811V0.935547H44.1137C57.2973 0.935547 67.5805 3.92383 74.9633 9.90039C82.3461 15.877 86.0375 24.2266 86.0375 34.9492C86.0375 46.6094 79.9145 55.1348 67.6684 60.5254C80.4418 64.334 86.8285 73.4746 86.8285 87.9473V96.4727C86.8285 100.164 87.2973 103.68 88.2348 107.02C89.1723 110.301 90.6078 112.732 92.5414 114.314V115.984H68.723C65.3832 113.289 63.7133 106.727 63.7133 96.2969V88.123C63.7133 82.3809 62.1312 77.9277 58.9672 74.7637C55.8617 71.541 51.4379 69.9297 45.6957 69.9297L23.723 70.0176V116.072ZM23.723 18.6016V52.1758H43.6742C56.5648 52.1758 63.0102 46.7266 63.0102 35.8281C63.0102 30.4375 61.3988 26.2188 58.1762 23.1719C54.9535 20.125 50.266 18.6016 44.1137 18.6016H23.723Z"/>
</mask>
<path d="M23.723 116.072V117.072H24.723V116.072H23.723ZM0.607811 116.072H-0.392189V117.072H0.607811V116.072ZM0.607811 0.935547V-0.0644531H-0.392189V0.935547H0.607811ZM67.6684 60.5254L67.2655 59.6101L64.7753 60.7063L67.3826 61.4837L67.6684 60.5254ZM88.2348 107.02L87.272 107.29L87.2732 107.294L88.2348 107.02ZM92.5414 114.314H93.5414V113.841L93.1746 113.54L92.5414 114.314ZM92.5414 115.984V116.984H93.5414V115.984H92.5414ZM68.723 115.984L68.095 116.763L68.3699 116.984H68.723V115.984ZM58.9672 74.7637L58.2471 75.4576L58.2535 75.4642L58.2601 75.4708L58.9672 74.7637ZM45.6957 69.9297V68.9297L45.6917 68.9297L45.6957 69.9297ZM23.723 70.0176L23.719 69.0176L22.723 69.0216V70.0176H23.723ZM23.723 18.6016V17.6016H22.723V18.6016H23.723ZM23.723 52.1758H22.723V53.1758H23.723V52.1758ZM23.723 115.072H0.607811V117.072H23.723V115.072ZM1.60781 116.072V0.935547H-0.392189V116.072H1.60781ZM0.607811 1.93555H44.1137V-0.0644531H0.607811V1.93555ZM44.1137 1.93555C57.156 1.93555 67.1873 4.89215 74.3341 10.6776L75.5925 9.12315C67.9736 2.95551 57.4385 -0.0644531 44.1137 -0.0644531V1.93555ZM74.3341 10.6776C81.4502 16.4383 85.0375 24.4844 85.0375 34.9492H87.0375C87.0375 23.9687 83.242 15.3156 75.5925 9.12315L74.3341 10.6776ZM85.0375 34.9492C85.0375 40.5943 83.559 45.4311 80.633 49.505C77.7008 53.5877 73.2691 56.9674 67.2655 59.6101L68.0712 61.4406C74.3137 58.6927 79.0666 55.1144 82.2574 50.6717C85.4545 46.2203 87.0375 40.9643 87.0375 34.9492H85.0375ZM67.3826 61.4837C73.5968 63.3365 78.1787 66.4592 81.2188 70.8101C84.2642 75.1687 85.8285 80.8551 85.8285 87.9473H87.8285C87.8285 80.5667 86.1994 74.4465 82.8582 69.6646C79.5115 64.8748 74.5134 61.5228 67.9541 59.5671L67.3826 61.4837ZM85.8285 87.9473V96.4727H87.8285V87.9473H85.8285ZM85.8285 96.4727C85.8285 100.25 86.3083 103.857 87.272 107.29L89.1976 106.749C88.2863 103.503 87.8285 100.079 87.8285 96.4727H85.8285ZM87.2732 107.294C88.2467 110.701 89.7686 113.338 91.9082 115.088L93.1746 113.54C91.4471 112.127 90.0978 109.9 89.1963 106.745L87.2732 107.294ZM91.5414 114.314V115.984H93.5414V114.314H91.5414ZM92.5414 114.984H68.723V116.984H92.5414V114.984ZM69.3511 115.206C67.9215 114.053 66.7452 111.979 65.9348 108.794C65.1283 105.625 64.7133 101.468 64.7133 96.2969H62.7133C62.7133 101.555 63.1332 105.895 63.9966 109.288C64.8562 112.666 66.1847 115.221 68.095 116.763L69.3511 115.206ZM64.7133 96.2969V88.123H62.7133V96.2969H64.7133ZM64.7133 88.123C64.7133 82.1943 63.075 77.4573 59.6743 74.0566L58.2601 75.4708C61.1875 78.3982 62.7133 82.5674 62.7133 88.123H64.7133ZM59.6873 74.0698C56.3437 70.6 51.6286 68.9297 45.6957 68.9297V70.9297C51.2472 70.9297 55.3798 72.482 58.2471 75.4576L59.6873 74.0698ZM45.6917 68.9297L23.719 69.0176L23.727 71.0176L45.6997 70.9297L45.6917 68.9297ZM22.723 70.0176V116.072H24.723V70.0176H22.723ZM22.723 18.6016V52.1758H24.723V18.6016H22.723ZM23.723 53.1758H43.6742V51.1758H23.723V53.1758ZM43.6742 53.1758C50.2365 53.1758 55.3447 51.7923 58.8218 48.8525C62.3311 45.8856 64.0102 41.4796 64.0102 35.8281H62.0102C62.0102 41.0751 60.4666 44.8429 57.5305 47.3252C54.5624 49.8347 50.0025 51.1758 43.6742 51.1758V53.1758ZM64.0102 35.8281C64.0102 30.2263 62.3276 25.7207 58.8632 22.4452L57.4892 23.8985C60.47 26.7168 62.0102 30.6487 62.0102 35.8281H64.0102ZM58.8632 22.4452C55.3931 19.1645 50.4216 17.6016 44.1137 17.6016V19.6016C50.1104 19.6016 54.5139 21.0855 57.4892 23.8985L58.8632 22.4452ZM44.1137 17.6016H23.723V19.6016H44.1137V17.6016Z" fill="#404040" mask="url(#path-1-outside-1_353_521)"/>
</svg>
