<svg width="89" height="116" viewBox="0 0 89 116" fill="none" xmlns="http://www.w3.org/2000/svg">
<mask id="path-1-outside-1_353_523" maskUnits="userSpaceOnUse" x="-1.03125" y="-1.01562" width="91" height="118" fill="black">
<rect fill="white" x="-1.03125" y="-1.01562" width="91" height="118"/>
<path d="M88.4242 0.847656V18.6016H55.8168V115.984H32.7016V18.6016H0.26992V0.847656H88.4242Z"/>
</mask>
<path d="M88.4242 0.847656H89.4242V-0.152344H88.4242V0.847656ZM88.4242 18.6016V19.6016H89.4242V18.6016H88.4242ZM55.8168 18.6016V17.6016H54.8168V18.6016H55.8168ZM55.8168 115.984V116.984H56.8168V115.984H55.8168ZM32.7016 115.984H31.7016V116.984H32.7016V115.984ZM32.7016 18.6016H33.7016V17.6016H32.7016V18.6016ZM0.26992 18.6016H-0.73008V19.6016H0.26992V18.6016ZM0.26992 0.847656V-0.152344H-0.73008V0.847656H0.26992ZM87.4242 0.847656V18.6016H89.4242V0.847656H87.4242ZM88.4242 17.6016H55.8168V19.6016H88.4242V17.6016ZM54.8168 18.6016V115.984H56.8168V18.6016H54.8168ZM55.8168 114.984H32.7016V116.984H55.8168V114.984ZM33.7016 115.984V18.6016H31.7016V115.984H33.7016ZM32.7016 17.6016H0.26992V19.6016H32.7016V17.6016ZM1.26992 18.6016V0.847656H-0.73008V18.6016H1.26992ZM0.26992 1.84766H88.4242V-0.152344H0.26992V1.84766Z" fill="#404040" mask="url(#path-1-outside-1_353_523)"/>
</svg>
