<svg width="24" height="116" viewBox="0 0 24 116" fill="none" xmlns="http://www.w3.org/2000/svg">
<mask id="path-1-outside-1_353_393" maskUnits="userSpaceOnUse" x="-0.84375" y="-1.01562" width="26" height="118" fill="black">
<rect fill="white" x="-0.84375" y="-1.01562" width="26" height="118"/>
<path d="M23.723 95.5938V115.984H0.51992V95.5938H23.723ZM23.723 0.847656V76.1699H0.51992V0.847656H23.723Z"/>
</mask>
<path d="M23.723 95.5938H24.723V94.5938H23.723V95.5938ZM23.723 115.984V116.984H24.723V115.984H23.723ZM0.51992 115.984H-0.48008V116.984H0.51992V115.984ZM0.51992 95.5938V94.5938H-0.48008V95.5938H0.51992ZM23.723 0.847656H24.723V-0.152344H23.723V0.847656ZM23.723 76.1699V77.1699H24.723V76.1699H23.723ZM0.51992 76.1699H-0.48008V77.1699H0.51992V76.1699ZM0.51992 0.847656V-0.152344H-0.48008V0.847656H0.51992ZM22.723 95.5938V115.984H24.723V95.5938H22.723ZM23.723 114.984H0.51992V116.984H23.723V114.984ZM1.51992 115.984V95.5938H-0.48008V115.984H1.51992ZM0.51992 96.5938H23.723V94.5938H0.51992V96.5938ZM22.723 0.847656V76.1699H24.723V0.847656H22.723ZM23.723 75.1699H0.51992V77.1699H23.723V75.1699ZM1.51992 76.1699V0.847656H-0.48008V76.1699H1.51992ZM0.51992 1.84766H23.723V-0.152344H0.51992V1.84766Z" fill="#404040" mask="url(#path-1-outside-1_353_393)"/>
</svg>
