<svg width="92" height="119" viewBox="0 0 92 119" fill="none" xmlns="http://www.w3.org/2000/svg">
<mask id="path-1-outside-1_353_389" maskUnits="userSpaceOnUse" x="-1.78125" y="-1.01562" width="95" height="121" fill="black">
<rect fill="white" x="-1.78125" y="-1.01562" width="95" height="121"/>
<path d="M91.5473 58.0098V101.428C87.6801 106.467 82.0551 110.627 74.6723 113.908C67.2895 117.189 58.4125 118.83 48.0414 118.83C33.8617 118.83 22.3187 114.465 13.4125 105.734C4.56484 97.0039 0.141014 85.6367 0.141014 71.6328V47.5508C0.141014 33.5469 4.41836 22.1797 12.973 13.4492C21.5277 4.71875 32.6312 0.353516 46.2836 0.353516C59.9945 0.353516 70.6293 3.69336 78.1879 10.373C85.7465 17.0527 89.6137 26.1055 89.7895 37.5312L89.6137 37.9707H67.9047C67.3773 31.7012 65.3559 26.8379 61.8402 23.3809C58.3246 19.8652 53.1684 18.1074 46.3715 18.1074C39.5746 18.1074 34.0082 20.832 29.6723 26.2812C25.3363 31.6719 23.1684 38.7031 23.1684 47.375V71.6328C23.1684 80.4805 25.3949 87.5996 29.848 92.9902C34.3598 98.3809 40.4242 101.076 48.0414 101.076C57.7094 101.076 64.5062 99.1719 68.432 95.3633V74.0059H48.0414V58.0098H91.5473Z"/>
</mask>
<path d="M91.5473 58.0098H92.5473V57.0098H91.5473V58.0098ZM91.5473 101.428L92.3406 102.037L92.5473 101.767V101.428H91.5473ZM13.4125 105.734L12.7101 106.446L12.7125 106.448L13.4125 105.734ZM89.7895 37.5312L90.7179 37.9026L90.7924 37.7164L90.7893 37.5159L89.7895 37.5312ZM89.6137 37.9707V38.9707H90.2907L90.5421 38.3421L89.6137 37.9707ZM67.9047 37.9707L66.9082 38.0545L66.9853 38.9707H67.9047V37.9707ZM61.8402 23.3809L61.1331 24.088L61.1391 24.0939L61.8402 23.3809ZM29.6723 26.2812L30.4515 26.908L30.4548 26.9039L29.6723 26.2812ZM29.848 92.9902L29.0771 93.6271L29.0812 93.632L29.848 92.9902ZM68.432 95.3633L69.1283 96.081L69.432 95.7864V95.3633H68.432ZM68.432 74.0059H69.432V73.0059H68.432V74.0059ZM48.0414 74.0059H47.0414V75.0059H48.0414V74.0059ZM48.0414 58.0098V57.0098H47.0414V58.0098H48.0414ZM90.5473 58.0098V101.428H92.5473V58.0098H90.5473ZM90.754 100.819C87.0123 105.694 81.537 109.763 74.2661 112.994L75.0784 114.822C82.5732 111.491 88.3478 107.239 92.3406 102.037L90.754 100.819ZM74.2661 112.994C67.042 116.205 58.3107 117.83 48.0414 117.83V119.83C58.5143 119.83 67.5369 118.174 75.0784 114.822L74.2661 112.994ZM48.0414 117.83C34.0846 117.83 22.8058 113.542 14.1125 105.02L12.7125 106.448C21.8317 115.388 33.6388 119.83 48.0414 119.83V117.83ZM14.1149 105.023C5.48249 96.5045 1.14101 85.4062 1.14101 71.6328H-0.858986C-0.858986 85.8672 3.6472 97.5033 12.7101 106.446L14.1149 105.023ZM1.14101 71.6328V47.5508H-0.858986V71.6328H1.14101ZM1.14101 47.5508C1.14101 33.7673 5.34276 22.6651 13.6873 14.1491L12.2588 12.7493C3.49396 21.6943 -0.858986 33.3264 -0.858986 47.5508H1.14101ZM13.6873 14.1491C22.0311 5.63389 32.8655 1.35352 46.2836 1.35352V-0.646484C32.397 -0.646484 21.0244 3.80361 12.2588 12.7493L13.6873 14.1491ZM46.2836 1.35352C59.8389 1.35352 70.2067 4.6544 77.5257 11.1224L78.8501 9.62372C71.0519 2.73232 60.1502 -0.646484 46.2836 -0.646484V1.35352ZM77.5257 11.1224C84.8444 17.5901 88.6175 26.3608 88.7896 37.5466L90.7893 37.5159C90.6099 25.8502 86.6486 16.5154 78.8501 9.62372L77.5257 11.1224ZM88.861 37.1599L88.6852 37.5993L90.5421 38.3421L90.7179 37.9026L88.861 37.1599ZM89.6137 36.9707H67.9047V38.9707H89.6137V36.9707ZM68.9012 37.8869C68.3595 31.4465 66.2703 26.3346 62.5414 22.6678L61.1391 24.0939C64.4414 27.3412 66.3952 31.9558 66.9082 38.0545L68.9012 37.8869ZM62.5473 22.6738C58.7838 18.9102 53.3339 17.1074 46.3715 17.1074V19.1074C53.0028 19.1074 57.8654 20.8202 61.1331 24.088L62.5473 22.6738ZM46.3715 17.1074C39.2613 17.1074 33.41 19.9778 28.8898 25.6586L30.4548 26.9039C34.6064 21.6863 39.8879 19.1074 46.3715 19.1074V17.1074ZM28.8931 25.6545C24.3811 31.2639 22.1684 38.5343 22.1684 47.375H24.1684C24.1684 38.872 26.2915 32.0798 30.4515 26.908L28.8931 25.6545ZM22.1684 47.375V71.6328H24.1684V47.375H22.1684ZM22.1684 71.6328C22.1684 80.6498 24.4401 88.014 29.0771 93.6271L30.619 92.3533C26.3497 87.1852 24.1684 80.3111 24.1684 71.6328H22.1684ZM29.0812 93.632C33.8003 99.2704 40.1563 102.076 48.0414 102.076V100.076C40.6921 100.076 34.9193 97.4913 30.6149 92.3484L29.0812 93.632ZM48.0414 102.076C57.7864 102.076 64.9165 100.167 69.1283 96.081L67.7357 94.6455C64.0959 98.1767 57.6324 100.076 48.0414 100.076V102.076ZM69.432 95.3633V74.0059H67.432V95.3633H69.432ZM68.432 73.0059H48.0414V75.0059H68.432V73.0059ZM49.0414 74.0059V58.0098H47.0414V74.0059H49.0414ZM48.0414 59.0098H91.5473V57.0098H48.0414V59.0098Z" fill="#404040" mask="url(#path-1-outside-1_353_389)"/>
</svg>
