<svg width="97" height="119" viewBox="0 0 97 119" fill="none" xmlns="http://www.w3.org/2000/svg">
<mask id="path-1-outside-1_353_391" maskUnits="userSpaceOnUse" x="-0.5" y="-1.01562" width="99" height="121" fill="black">
<rect fill="white" x="-0.5" y="-1.01562" width="99" height="121"/>
<path d="M73.8891 69.9629V49.0449C73.8891 39.9043 71.6332 32.5215 67.1215 26.8965C62.6098 21.2129 56.4574 18.3711 48.6645 18.3711C40.8715 18.3711 34.7777 21.1836 30.3832 26.8086C26.0473 32.375 23.8793 39.7871 23.8793 49.0449V69.9629C23.8793 79.2793 26.0766 86.7793 30.4711 92.4629C34.9242 98.0879 41.018 100.9 48.7523 100.9C56.5453 100.9 62.6684 98.0879 67.1215 92.4629C71.6332 86.7793 73.8891 79.2793 73.8891 69.9629ZM96.9164 49.2207V69.9629C96.9164 84.2598 92.434 95.9785 83.4691 105.119C74.5629 114.26 62.9613 118.83 48.6645 118.83C39.2895 118.83 30.9691 116.75 23.7035 112.59C16.4379 108.371 10.8129 102.57 6.82851 95.1875C2.84414 87.7461 0.851952 79.3379 0.851952 69.9629V49.2207C0.851952 34.9824 5.27578 23.293 14.1234 14.1523C22.9711 4.95312 34.4848 0.353516 48.6645 0.353516C62.9027 0.353516 74.5043 4.95312 83.4691 14.1523C92.434 23.293 96.9164 34.9824 96.9164 49.2207Z"/>
</mask>
<path d="M67.1215 26.8965L66.3382 27.5182L66.3414 27.5222L67.1215 26.8965ZM30.3832 26.8086L29.5952 26.1929L29.5943 26.1941L30.3832 26.8086ZM30.4711 92.4629L29.6799 93.0746L29.687 93.0836L30.4711 92.4629ZM67.1215 92.4629L66.3383 91.8412L66.3374 91.8422L67.1215 92.4629ZM83.4691 105.119L82.7552 104.419L82.7529 104.421L83.4691 105.119ZM23.7035 112.59L23.2014 113.455L23.2066 113.458L23.7035 112.59ZM6.82851 95.1875L5.94693 95.6595L5.94849 95.6624L6.82851 95.1875ZM14.1234 14.1523L14.842 14.8478L14.8442 14.8455L14.1234 14.1523ZM83.4691 14.1523L82.753 14.8503L82.7552 14.8526L83.4691 14.1523ZM74.8891 69.9629V49.0449H72.8891V69.9629H74.8891ZM74.8891 49.0449C74.8891 39.7388 72.5901 32.1163 67.9016 26.2708L66.3414 27.5222C70.6763 32.9267 72.8891 40.0698 72.8891 49.0449H74.8891ZM67.9047 26.2747C63.1877 20.3326 56.7366 17.3711 48.6645 17.3711V19.3711C56.1782 19.3711 62.0318 22.0932 66.3383 27.5182L67.9047 26.2747ZM48.6645 17.3711C40.5961 17.3711 34.1983 20.3009 29.5952 26.1929L31.1712 27.4242C35.3571 22.0663 41.1469 19.3711 48.6645 19.3711V17.3711ZM29.5943 26.1941C25.0841 31.9842 22.8793 39.6342 22.8793 49.0449H24.8793C24.8793 39.94 27.0104 32.7658 31.1721 27.4231L29.5943 26.1941ZM22.8793 49.0449V69.9629H24.8793V49.0449H22.8793ZM22.8793 69.9629C22.8793 79.4346 25.1145 87.1699 29.68 93.0746L31.2622 91.8512C27.0386 86.3887 24.8793 79.124 24.8793 69.9629H22.8793ZM29.687 93.0836C34.3462 98.9689 40.7398 101.9 48.7523 101.9V99.9004C41.2961 99.9004 35.5022 97.2069 31.2551 91.8422L29.687 93.0836ZM48.7523 101.9C56.8207 101.9 63.2447 98.9709 67.9055 93.0836L66.3374 91.8422C62.092 97.2049 56.27 99.9004 48.7523 99.9004V101.9ZM67.9047 93.0846C72.5924 87.1793 74.8891 79.4401 74.8891 69.9629H72.8891C72.8891 79.1185 70.674 86.3793 66.3383 91.8412L67.9047 93.0846ZM95.9164 49.2207V69.9629H97.9164V49.2207H95.9164ZM95.9164 69.9629C95.9164 84.0312 91.5146 95.4878 82.7552 104.419L84.1831 105.819C93.3534 96.4693 97.9164 84.4883 97.9164 69.9629H95.9164ZM82.7529 104.421C74.0584 113.345 62.7272 117.83 48.6645 117.83V119.83C63.1954 119.83 75.0674 115.175 84.1854 105.817L82.7529 104.421ZM48.6645 117.83C39.4425 117.83 31.2973 115.786 24.2004 111.722L23.2066 113.458C30.641 117.714 39.1365 119.83 48.6645 119.83V117.83ZM24.2057 111.725C17.0993 107.599 11.6052 101.933 7.70854 94.7126L5.94849 95.6624C10.0206 103.208 15.7765 109.143 23.2014 113.455L24.2057 111.725ZM7.7101 94.7155C3.81177 87.4348 1.85195 79.1917 1.85195 69.9629H-0.148048C-0.148048 79.484 1.87651 88.0574 5.94693 95.6595L7.7101 94.7155ZM1.85195 69.9629V49.2207H-0.148048V69.9629H1.85195ZM1.85195 49.2207C1.85195 35.2083 6.19698 23.7791 14.842 14.8478L13.4049 13.4568C4.35458 22.8069 -0.148048 34.7565 -0.148048 49.2207H1.85195ZM14.8442 14.8455C23.4814 5.8651 34.7235 1.35352 48.6645 1.35352V-0.646484C34.2461 -0.646484 22.4608 4.04115 13.4027 13.4591L14.8442 14.8455ZM48.6645 1.35352C62.6652 1.35352 73.9977 5.8661 82.753 14.8503L84.1853 13.4544C75.0109 4.04015 63.1402 -0.646484 48.6645 -0.646484V1.35352ZM82.7552 14.8526C91.5154 23.7845 95.9164 35.2122 95.9164 49.2207H97.9164C97.9164 34.7526 93.3526 22.8014 84.1831 13.4521L82.7552 14.8526Z" fill="#404040" mask="url(#path-1-outside-1_353_391)"/>
</svg>
