<svg width="68" height="113" viewBox="0 0 68 113" fill="none" xmlns="http://www.w3.org/2000/svg">
<g clip-path="url(#clip0_353_265)">
<mask id="path-1-outside-1_353_265" maskUnits="userSpaceOnUse" x="3.375" y="14.1094" width="60" height="77" fill="black">
<rect fill="white" x="3.375" y="14.1094" width="60" height="77"/>
<path d="M62.1172 51.4141V78.4297C59.7109 81.5651 56.2109 84.1536 51.6172 86.1953C47.0234 88.237 41.5 89.2578 35.0469 89.2578C26.224 89.2578 19.0417 86.5417 13.5 81.1094C7.99479 75.6771 5.24219 68.6042 5.24219 59.8906V44.9062C5.24219 36.1927 7.90365 29.1198 13.2266 23.6875C18.5495 18.2552 25.4583 15.5391 33.9531 15.5391C42.4844 15.5391 49.1016 17.6172 53.8047 21.7734C58.5078 25.9297 60.9141 31.5625 61.0234 38.6719L60.9141 38.9453H47.4062C47.0781 35.0443 45.8203 32.0182 43.6328 29.8672C41.4453 27.6797 38.237 26.5859 34.0078 26.5859C29.7786 26.5859 26.3151 28.2812 23.6172 31.6719C20.9193 35.026 19.5703 39.401 19.5703 44.7969V59.8906C19.5703 65.3958 20.9557 69.8255 23.7266 73.1797C26.5339 76.5339 30.3073 78.2109 35.0469 78.2109C41.0625 78.2109 45.2917 77.026 47.7344 74.6562V61.3672H35.0469V51.4141H62.1172Z"/>
</mask>
<path d="M62.1172 51.4141H63.1172V50.4141H62.1172V51.4141ZM62.1172 78.4297L62.9105 79.0385L63.1172 78.7692V78.4297H62.1172ZM13.5 81.1094L12.7976 81.8212L12.8 81.8235L13.5 81.1094ZM13.2266 23.6875L12.5123 22.9876L13.2266 23.6875ZM61.0234 38.6719L61.9519 39.0433L62.0264 38.857L62.0233 38.6565L61.0234 38.6719ZM60.9141 38.9453V39.9453H61.5911L61.8425 39.3167L60.9141 38.9453ZM47.4062 38.9453L46.4098 39.0291L46.4868 39.9453H47.4062V38.9453ZM43.6328 29.8672L42.9257 30.5743L42.9317 30.5802L43.6328 29.8672ZM23.6172 31.6719L24.3964 32.2986L24.3997 32.2945L23.6172 31.6719ZM23.7266 73.1797L22.9556 73.8166L22.9597 73.8215L23.7266 73.1797ZM47.7344 74.6562L48.4307 75.374L48.7344 75.0794V74.6562H47.7344ZM47.7344 61.3672H48.7344V60.3672H47.7344V61.3672ZM35.0469 61.3672H34.0469V62.3672H35.0469V61.3672ZM35.0469 51.4141V50.4141H34.0469V51.4141H35.0469ZM61.1172 51.4141V78.4297H63.1172V51.4141H61.1172ZM61.3239 77.8209C59.0432 80.7927 55.6928 83.2896 51.211 85.2815L52.0233 87.1091C56.729 85.0177 60.3787 82.3375 62.9105 79.0385L61.3239 77.8209ZM51.211 85.2815C46.7759 87.2527 41.3982 88.2578 35.0469 88.2578V90.2578C41.6018 90.2578 47.2709 89.2213 52.0233 87.1091L51.211 85.2815ZM35.0469 88.2578C26.4468 88.2578 19.5287 85.6188 14.2 80.3953L12.8 81.8235C18.5546 87.4646 26.0011 90.2578 35.0469 90.2578V88.2578ZM14.2024 80.3976C8.91244 75.1777 6.24219 68.3737 6.24219 59.8906H4.24219C4.24219 68.8347 7.07715 76.1765 12.7976 81.8212L14.2024 80.3976ZM6.24219 59.8906V44.9062H4.24219V59.8906H6.24219ZM6.24219 44.9062C6.24219 36.4131 8.82804 29.6052 13.9408 24.3874L12.5123 22.9876C6.97925 28.6344 4.24219 35.9723 4.24219 44.9062H6.24219ZM13.9408 24.3874C19.0528 19.1703 25.6926 16.5391 33.9531 16.5391V14.5391C25.2241 14.5391 18.0461 17.3401 12.5123 22.9876L13.9408 24.3874ZM33.9531 16.5391C42.3287 16.5391 48.6789 18.5782 53.1425 22.5228L54.4669 21.0241C49.5242 16.6561 42.64 14.5391 33.9531 14.5391V16.5391ZM53.1425 22.5228C57.6057 26.467 59.9179 31.8178 60.0236 38.6873L62.0233 38.6565C61.9103 31.3072 59.4099 25.3923 54.4669 21.0241L53.1425 22.5228ZM60.095 38.3005L59.9856 38.5739L61.8425 39.3167L61.9519 39.0433L60.095 38.3005ZM60.9141 37.9453H47.4062V39.9453H60.9141V37.9453ZM48.4027 38.8615C48.0602 34.7896 46.7347 31.5149 44.334 29.1542L42.9317 30.5802C44.9059 32.5215 46.096 35.2989 46.4098 39.0291L48.4027 38.8615ZM44.3399 29.1601C41.9045 26.7247 38.4025 25.5859 34.0078 25.5859V27.5859C38.0714 27.5859 40.9861 28.6347 42.9257 30.5743L44.3399 29.1601ZM34.0078 25.5859C29.4653 25.5859 25.7169 27.427 22.8347 31.0492L24.3997 32.2945C26.9133 29.1355 30.092 27.5859 34.0078 27.5859V25.5859ZM22.838 31.0451C19.9641 34.6181 18.5703 39.2322 18.5703 44.7969H20.5703C20.5703 39.5699 21.8745 35.434 24.3964 32.2986L22.838 31.0451ZM18.5703 44.7969V59.8906H20.5703V44.7969H18.5703ZM18.5703 59.8906C18.5703 65.5652 20.001 70.2399 22.9556 73.8166L24.4975 72.5428C21.9105 69.4111 20.5703 65.2265 20.5703 59.8906H18.5703ZM22.9597 73.8215C25.9743 77.4234 30.0394 79.2109 35.0469 79.2109V77.2109C30.5752 77.2109 27.0934 75.6443 24.4934 72.5379L22.9597 73.8215ZM35.0469 79.2109C41.1395 79.2109 45.702 78.0212 48.4307 75.374L47.0381 73.9385C44.8814 76.0308 40.9855 77.2109 35.0469 77.2109V79.2109ZM48.7344 74.6562V61.3672H46.7344V74.6562H48.7344ZM47.7344 60.3672H35.0469V62.3672H47.7344V60.3672ZM36.0469 61.3672V51.4141H34.0469V61.3672H36.0469ZM35.0469 52.4141H62.1172V50.4141H35.0469V52.4141Z" fill="#404040" mask="url(#path-1-outside-1_353_265)"/>
</g>
<defs>
<clipPath id="clip0_353_265">
<rect width="67.375" height="112" fill="white" transform="translate(0.375 0.109375)"/>
</clipPath>
</defs>
</svg>
