<svg width="64" height="113" viewBox="0 0 64 113" fill="none" xmlns="http://www.w3.org/2000/svg">
<g clip-path="url(#clip0_353_255)">
<mask id="path-1-outside-1_353_255" maskUnits="userSpaceOnUse" x="3" y="14.1094" width="58" height="77" fill="black">
<rect fill="white" x="3" y="14.1094" width="58" height="77"/>
<path d="M33.3047 78.375H33.4141C37.2786 78.375 40.25 77.5911 42.3281 76.0234C44.4427 74.4193 45.5 72.25 45.5 69.5156C45.5 66.7448 44.5339 64.5391 42.6016 62.8984C40.7057 61.2214 37.2786 59.6354 32.3203 58.1406C23.3151 55.5521 16.7344 52.5625 12.5781 49.1719C8.45833 45.7448 6.39844 41.151 6.39844 35.3906C6.39844 29.5938 8.89583 24.8359 13.8906 21.1172C18.8854 17.3984 25.2839 15.5391 33.0859 15.5391C40.9245 15.5391 47.3229 17.6172 52.2812 21.7734C57.2396 25.8932 59.6276 31.0703 59.4453 37.3047L59.3906 37.5781H45.4453C45.4453 34.1875 44.3151 31.4896 42.0547 29.4844C39.8307 27.4792 36.7865 26.4766 32.9219 26.4766C29.0573 26.4766 26.0495 27.3151 23.8984 28.9922C21.7839 30.6328 20.7266 32.7474 20.7266 35.3359C20.7266 37.888 21.8021 39.9479 23.9531 41.5156C26.1406 43.0469 30.0781 44.7057 35.7656 46.4922C43.8958 48.7526 49.9297 51.7057 53.8672 55.3516C57.8411 58.9609 59.8281 63.737 59.8281 69.6797C59.8281 75.6224 57.4219 80.3802 52.6094 83.9531C47.8333 87.4896 41.4167 89.2578 33.3594 89.2578C28.0729 89.2578 23.2422 88.3828 18.8672 86.6328C14.4922 84.8464 10.974 82.1849 8.3125 78.6484C5.65104 75.112 4.35677 71.0104 4.42969 66.3438L4.53906 66.0156H18.4844C18.4844 74.2552 23.4245 78.375 33.3047 78.375Z"/>
</mask>
<path d="M42.3281 76.0234L42.9304 76.8218L42.9325 76.8201L42.3281 76.0234ZM42.6016 62.8984L41.939 63.6474L41.9466 63.6542L41.9543 63.6607L42.6016 62.8984ZM32.3203 58.1406L32.609 57.1831L32.5966 57.1795L32.3203 58.1406ZM12.5781 49.1719L11.9386 49.9407L11.946 49.9467L12.5781 49.1719ZM52.2812 21.7734L51.6388 22.5398L51.6422 22.5426L52.2812 21.7734ZM59.4453 37.3047L60.4259 37.5008L60.4424 37.4182L60.4449 37.3339L59.4453 37.3047ZM59.3906 37.5781V38.5781H60.2104L60.3712 37.7742L59.3906 37.5781ZM45.4453 37.5781H44.4453V38.5781H45.4453V37.5781ZM42.0547 29.4844L41.385 30.2271L41.3911 30.2324L42.0547 29.4844ZM23.8984 28.9922L24.5114 29.7823L24.5133 29.7808L23.8984 28.9922ZM23.9531 41.5156L23.3641 42.3238L23.3718 42.3294L23.3797 42.3349L23.9531 41.5156ZM35.7656 46.4922L35.466 47.4462L35.4818 47.4512L35.4978 47.4556L35.7656 46.4922ZM53.8672 55.3516L53.1877 56.0854L53.1949 56.0918L53.8672 55.3516ZM52.6094 83.9531L53.2045 84.7568L53.2055 84.756L52.6094 83.9531ZM18.8672 86.6328L18.4891 87.5586L18.4958 87.5613L18.8672 86.6328ZM4.42969 66.3438L3.481 66.0275L3.43222 66.1739L3.42981 66.3281L4.42969 66.3438ZM4.53906 66.0156V65.0156H3.8183L3.59038 65.6994L4.53906 66.0156ZM18.4844 66.0156H19.4844V65.0156H18.4844V66.0156ZM33.3047 79.375H33.4141V77.375H33.3047V79.375ZM33.4141 79.375C37.3954 79.375 40.6127 78.5702 42.9304 76.8218L41.7259 75.2251C39.8873 76.6121 37.1619 77.375 33.4141 77.375V79.375ZM42.9325 76.8201C45.305 75.0203 46.5 72.5517 46.5 69.5156H44.5C44.5 71.9483 43.5804 73.8182 41.7237 75.2267L42.9325 76.8201ZM46.5 69.5156C46.5 66.4821 45.4274 63.9859 43.2488 62.1361L41.9543 63.6607C43.6403 65.0922 44.5 67.0074 44.5 69.5156H46.5ZM43.2641 62.1494C41.1966 60.3205 37.5906 58.685 32.609 57.1832L32.0317 59.0981C36.9667 60.5858 40.2149 62.1222 41.939 63.6474L43.2641 62.1494ZM32.5966 57.1795C23.6387 54.6046 17.211 51.6608 13.2103 48.397L11.946 49.9467C16.2578 53.4642 22.9915 56.4996 32.044 59.1017L32.5966 57.1795ZM13.2176 48.4031C9.34506 45.1817 7.39844 40.8793 7.39844 35.3906H5.39844C5.39844 41.4227 7.5716 46.3079 11.9386 49.9407L13.2176 48.4031ZM7.39844 35.3906C7.39844 29.9361 9.72459 25.4656 14.4878 21.9193L13.2934 20.3151C8.06707 24.2062 5.39844 29.2514 5.39844 35.3906H7.39844ZM14.4878 21.9193C19.2705 18.3585 25.4439 16.5391 33.0859 16.5391V14.5391C25.1238 14.5391 18.5004 16.4384 13.2934 20.3151L14.4878 21.9193ZM33.0859 16.5391C40.7412 16.5391 46.8966 18.5646 51.6389 22.5398L52.9236 21.0071C47.7493 16.6697 41.1077 14.5391 33.0859 14.5391V16.5391ZM51.6422 22.5426C56.3732 26.4735 58.6187 31.3603 58.4457 37.2755L60.4449 37.3339C60.6365 30.7803 58.1059 25.3129 52.9203 21.0043L51.6422 22.5426ZM58.4647 37.1086L58.41 37.382L60.3712 37.7742L60.4259 37.5008L58.4647 37.1086ZM59.3906 36.5781H45.4453V38.5781H59.3906V36.5781ZM46.4453 37.5781C46.4453 33.9404 45.2201 30.9557 42.7183 28.7363L41.3911 30.2324C43.4101 32.0235 44.4453 34.4346 44.4453 37.5781H46.4453ZM42.7243 28.7417C40.2683 26.5272 36.9599 25.4766 32.9219 25.4766V27.4766C36.6131 27.4766 39.3932 28.4311 41.3851 30.2271L42.7243 28.7417ZM32.9219 25.4766C28.9252 25.4766 25.6704 26.3426 23.2836 28.2036L24.5133 29.7808C26.4285 28.2876 29.1894 27.4766 32.9219 27.4766V25.4766ZM23.2854 28.2021C20.9364 30.0247 19.7266 32.4264 19.7266 35.3359H21.7266C21.7266 33.0684 22.6313 31.241 24.5114 29.7823L23.2854 28.2021ZM19.7266 35.3359C19.7266 38.2234 20.9679 40.5774 23.3641 42.3238L24.5421 40.7075C22.6363 39.3185 21.7266 37.5526 21.7266 35.3359H19.7266ZM23.3797 42.3349C25.7036 43.9616 29.7709 45.6574 35.466 47.4462L36.0653 45.5381C30.3854 43.7541 26.5777 42.1322 24.5266 40.6964L23.3797 42.3349ZM35.4978 47.4556C43.5536 49.6954 49.4154 52.5924 53.1878 56.0853L54.5466 54.6178C50.444 50.8191 44.2381 47.8098 36.0335 45.5287L35.4978 47.4556ZM53.1949 56.0918C56.9365 59.4902 58.8281 63.9853 58.8281 69.6797H60.8281C60.8281 63.4887 58.7458 58.4317 54.5395 54.6113L53.1949 56.0918ZM58.8281 69.6797C58.8281 75.3027 56.5743 79.764 52.0133 83.1502L53.2055 84.756C58.2695 80.9964 60.8281 75.9421 60.8281 69.6797H58.8281ZM52.0143 83.1495C47.4624 86.52 41.2775 88.2578 33.3594 88.2578V90.2578C41.5558 90.2578 48.2043 88.4592 53.2045 84.7568L52.0143 83.1495ZM33.3594 88.2578C28.1847 88.2578 23.4819 87.4017 19.2386 85.7043L18.4958 87.5613C23.0025 89.364 27.9612 90.2578 33.3594 90.2578V88.2578ZM19.2452 85.707C15.0255 83.984 11.6571 81.4296 9.11151 78.0471L7.51349 79.2498C10.2908 82.9402 13.9589 85.7087 18.4892 87.5586L19.2452 85.707ZM9.11151 78.0471C6.59132 74.6984 5.35992 70.8168 5.42957 66.3594L3.42981 66.3281C3.35362 71.2041 4.71076 75.5256 7.51349 79.2498L9.11151 78.0471ZM5.37837 66.66L5.48775 66.3319L3.59038 65.6994L3.481 66.0275L5.37837 66.66ZM4.53906 67.0156H18.4844V65.0156H4.53906V67.0156ZM17.4844 66.0156C17.4844 70.3421 18.79 73.7523 21.549 76.0531C24.2732 78.325 28.2502 79.375 33.3047 79.375V77.375C28.479 77.375 25.0458 76.3651 22.8299 74.5172C20.6488 72.6982 19.4844 69.9287 19.4844 66.0156H17.4844Z" fill="#404040" mask="url(#path-1-outside-1_353_255)"/>
</g>
<defs>
<clipPath id="clip0_353_255">
<rect width="63.9375" height="112" fill="white" transform="translate(0 0.109375)"/>
</clipPath>
</defs>
</svg>
