<svg width="59" height="73" viewBox="0 0 59 73" fill="none" xmlns="http://www.w3.org/2000/svg">
<mask id="path-1-outside-1_353_500" maskUnits="userSpaceOnUse" x="-1.45312" y="-0.65625" width="63" height="74" fill="black">
<rect fill="white" x="-1.45312" y="-0.65625" width="63" height="74"/>
<path d="M14.6781 42.4297V72.3438H0.295311V0.703125H14.6781V29.9609H20.9672L39.9437 0.703125H57.4984L33.3812 34.0625L59.4125 72.3438H41.9125L22.6625 42.4297H14.6781Z"/>
</mask>
<path d="M14.6781 42.4297V41.4297H13.6781V42.4297H14.6781ZM14.6781 72.3438V73.3438H15.6781V72.3438H14.6781ZM0.295311 72.3438H-0.704689V73.3438H0.295311V72.3438ZM0.295311 0.703125V-0.296875H-0.704689V0.703125H0.295311ZM14.6781 0.703125H15.6781V-0.296875H14.6781V0.703125ZM14.6781 29.9609H13.6781V30.9609H14.6781V29.9609ZM20.9672 29.9609V30.9609H21.5105L21.8062 30.5051L20.9672 29.9609ZM39.9437 0.703125V-0.296875H39.4004L39.1048 0.158962L39.9437 0.703125ZM57.4984 0.703125L58.3088 1.28901L59.4553 -0.296875H57.4984V0.703125ZM33.3812 34.0625L32.5709 33.4766L32.16 34.0449L32.5543 34.6248L33.3812 34.0625ZM59.4125 72.3438V73.3438H61.3018L60.2394 71.7814L59.4125 72.3438ZM41.9125 72.3438L41.0716 72.8849L41.3668 73.3438H41.9125V72.3438ZM22.6625 42.4297L23.5034 41.8885L23.2082 41.4297H22.6625V42.4297ZM13.6781 42.4297V72.3438H15.6781V42.4297H13.6781ZM14.6781 71.3438H0.295311V73.3438H14.6781V71.3438ZM1.29531 72.3438V0.703125H-0.704689V72.3438H1.29531ZM0.295311 1.70312H14.6781V-0.296875H0.295311V1.70312ZM13.6781 0.703125V29.9609H15.6781V0.703125H13.6781ZM14.6781 30.9609H20.9672V28.9609H14.6781V30.9609ZM21.8062 30.5051L40.7827 1.24729L39.1048 0.158962L20.1282 29.4168L21.8062 30.5051ZM39.9437 1.70312H57.4984V-0.296875H39.9437V1.70312ZM56.688 0.117245L32.5709 33.4766L34.1916 34.6484L58.3088 1.28901L56.688 0.117245ZM32.5543 34.6248L58.5856 72.9061L60.2394 71.7814L34.2082 33.5002L32.5543 34.6248ZM59.4125 71.3438H41.9125V73.3438H59.4125V71.3438ZM42.7534 71.8026L23.5034 41.8885L21.8216 42.9708L41.0716 72.8849L42.7534 71.8026ZM22.6625 41.4297H14.6781V43.4297H22.6625V41.4297Z" fill="#404040" mask="url(#path-1-outside-1_353_500)"/>
</svg>
