<svg width="47" height="73" viewBox="0 0 47 73" fill="none" xmlns="http://www.w3.org/2000/svg">
<mask id="path-1-outside-1_353_494" maskUnits="userSpaceOnUse" x="-1.70312" y="-0.65625" width="50" height="74" fill="black">
<rect fill="white" x="-1.70312" y="-0.65625" width="50" height="74"/>
<path d="M14.4281 0.703125V61.2969H46.3109V72.3438H0.0453129V0.703125H14.4281Z"/>
</mask>
<path d="M14.4281 0.703125H15.4281V-0.296875H14.4281V0.703125ZM14.4281 61.2969H13.4281V62.2969H14.4281V61.2969ZM46.3109 61.2969H47.3109V60.2969H46.3109V61.2969ZM46.3109 72.3438V73.3438H47.3109V72.3438H46.3109ZM0.0453129 72.3438H-0.954687V73.3438H0.0453129V72.3438ZM0.0453129 0.703125V-0.296875H-0.954687V0.703125H0.0453129ZM13.4281 0.703125V61.2969H15.4281V0.703125H13.4281ZM14.4281 62.2969H46.3109V60.2969H14.4281V62.2969ZM45.3109 61.2969V72.3438H47.3109V61.2969H45.3109ZM46.3109 71.3438H0.0453129V73.3438H46.3109V71.3438ZM1.04531 72.3438V0.703125H-0.954687V72.3438H1.04531ZM0.0453129 1.70312H14.4281V-0.296875H0.0453129V1.70312Z" fill="#404040" mask="url(#path-1-outside-1_353_494)"/>
</svg>
