<svg width="61" height="75" viewBox="0 0 61 75" fill="none" xmlns="http://www.w3.org/2000/svg">
<mask id="path-1-outside-1_353_496" maskUnits="userSpaceOnUse" x="-1.17188" y="-0.65625" width="63" height="77" fill="black">
<rect fill="white" x="-1.17188" y="-0.65625" width="63" height="77"/>
<path d="M45.8891 44.0859V31.0703C45.8891 25.3828 44.4854 20.7891 41.6781 17.2891C38.8708 13.7526 35.0427 11.9844 30.1937 11.9844C25.3448 11.9844 21.5531 13.7344 18.8187 17.2344C16.1208 20.6979 14.7719 25.3099 14.7719 31.0703V44.0859C14.7719 49.8828 16.1391 54.5495 18.8734 58.0859C21.6443 61.5859 25.4359 63.3359 30.2484 63.3359C35.0974 63.3359 38.9073 61.5859 41.6781 58.0859C44.4854 54.5495 45.8891 49.8828 45.8891 44.0859ZM60.2172 31.1797V44.0859C60.2172 52.9818 57.4281 60.2734 51.85 65.9609C46.3083 71.6484 39.0896 74.4922 30.1937 74.4922C24.3604 74.4922 19.1833 73.1979 14.6625 70.6094C10.1417 67.9844 6.64167 64.375 4.1625 59.7812C1.68333 55.151 0.443748 49.9193 0.443748 44.0859V31.1797C0.443748 22.3203 3.19635 15.0469 8.70156 9.35938C14.2068 3.63542 21.3708 0.773438 30.1937 0.773438C39.0531 0.773438 46.2719 3.63542 51.85 9.35938C57.4281 15.0469 60.2172 22.3203 60.2172 31.1797Z"/>
</mask>
<path d="M41.6781 17.2891L40.8949 17.9108L40.898 17.9147L41.6781 17.2891ZM18.8187 17.2344L18.0307 16.6187L18.0298 16.6199L18.8187 17.2344ZM18.8734 58.0859L18.0823 58.6977L18.0894 58.7066L18.8734 58.0859ZM41.6781 58.0859L40.8949 57.4642L40.8941 57.4652L41.6781 58.0859ZM51.85 65.9609L51.1361 65.2607L51.1338 65.2631L51.85 65.9609ZM14.6625 70.6094L14.1604 71.4742L14.1656 71.4772L14.6625 70.6094ZM4.1625 59.7812L3.28091 60.2533L3.28248 60.2562L4.1625 59.7812ZM8.70156 9.35938L9.42009 10.0549L9.42231 10.0526L8.70156 9.35938ZM51.85 9.35938L51.1338 10.0573L51.1361 10.0596L51.85 9.35938ZM46.8891 44.0859V31.0703H44.8891V44.0859H46.8891ZM46.8891 31.0703C46.8891 25.2173 45.4423 20.3839 42.4582 16.6634L40.898 17.9147C43.5285 21.1943 44.8891 25.5483 44.8891 31.0703H46.8891ZM42.4613 16.6673C39.4488 12.8723 35.3219 10.9844 30.1937 10.9844V12.9844C34.7635 12.9844 38.2929 14.6329 40.8949 17.9108L42.4613 16.6673ZM30.1937 10.9844C25.0694 10.9844 20.9737 12.8517 18.0307 16.6187L19.6068 17.85C22.1325 14.6171 25.6202 12.9844 30.1937 12.9844V10.9844ZM18.0298 16.6199C15.1577 20.3071 13.7719 25.157 13.7719 31.0703H15.7719C15.7719 25.4628 17.084 21.0888 19.6077 17.8489L18.0298 16.6199ZM13.7719 31.0703V44.0859H15.7719V31.0703H13.7719ZM13.7719 44.0859C13.7719 50.0381 15.177 54.94 18.0823 58.6976L19.6645 57.4743C17.1011 54.1589 15.7719 49.7275 15.7719 44.0859H13.7719ZM18.0894 58.7066C21.0663 62.4669 25.1578 64.3359 30.2484 64.3359V62.3359C25.7141 62.3359 22.2223 60.7049 19.6575 57.4652L18.0894 58.7066ZM30.2484 64.3359C35.3727 64.3359 39.4837 62.469 42.4622 58.7066L40.8941 57.4652C38.3309 60.7029 34.822 62.3359 30.2484 62.3359V64.3359ZM42.4613 58.7077C45.4447 54.9495 46.8891 50.0437 46.8891 44.0859H44.8891C44.8891 49.722 43.5262 54.1495 40.8949 57.4642L42.4613 58.7077ZM59.2172 31.1797V44.0859H61.2172V31.1797H59.2172ZM59.2172 44.0859C59.2172 52.7532 56.5088 59.7827 51.1361 65.2607L52.5639 66.6611C58.3475 60.7642 61.2172 53.2103 61.2172 44.0859H59.2172ZM51.1338 65.2631C45.8038 70.7333 38.8555 73.4922 30.1937 73.4922V75.4922C39.3237 75.4922 46.8129 72.5636 52.5662 66.6588L51.1338 65.2631ZM30.1937 73.4922C24.5134 73.4922 19.5115 72.2335 15.1594 69.7416L14.1656 71.4772C18.8552 74.1624 24.2074 75.4922 30.1937 75.4922V73.4922ZM15.1646 69.7446C10.8031 67.2121 7.43395 63.7375 5.04252 59.3063L3.28248 60.2562C5.84938 65.0125 9.48027 68.7567 14.1604 71.4742L15.1646 69.7446ZM5.04408 59.3092C2.65096 54.8397 1.44375 49.7731 1.44375 44.0859H-0.556252C-0.556252 50.0654 0.715699 55.4624 3.28092 60.2533L5.04408 59.3092ZM1.44375 44.0859V31.1797H-0.556252V44.0859H1.44375ZM1.44375 31.1797C1.44375 22.5462 4.11755 15.533 9.42009 10.0549L7.98303 8.66388C2.27515 14.5608 -0.556252 22.0944 -0.556252 31.1797H1.44375ZM9.42231 10.0526C14.7171 4.54739 21.6095 1.77344 30.1937 1.77344V-0.226562C21.1321 -0.226562 13.6964 2.72345 7.98082 8.66618L9.42231 10.0526ZM30.1937 1.77344C38.8156 1.77344 45.7653 4.54839 51.1338 10.0573L52.5662 8.66145C46.7785 2.72244 39.2906 -0.226562 30.1937 -0.226562V1.77344ZM51.1361 10.0596C56.5096 15.5384 59.2172 22.5501 59.2172 31.1797H61.2172C61.2172 22.0905 58.3467 14.5553 52.5639 8.65916L51.1361 10.0596Z" fill="#404040" mask="url(#path-1-outside-1_353_496)"/>
</svg>
