<svg width="64" height="72" viewBox="0 0 64 72" fill="none" xmlns="http://www.w3.org/2000/svg">
<mask id="path-1-outside-1_353_290" maskUnits="userSpaceOnUse" x="-1.53125" y="-1.23438" width="67" height="74" fill="black">
<rect fill="white" x="-1.53125" y="-1.23438" width="67" height="74"/>
<path d="M49.4531 71.7656L44.5859 56.2891H19.4297L14.5625 71.7656H0.0703125L24.7344 0.125H39.4453L64 71.7656H49.4531ZM31.8984 16.8594L22.9844 45.0234H41.0859L32.2266 16.8594H31.8984Z"/>
</mask>
<path d="M49.4531 71.7656L48.4992 72.0656L48.7193 72.7656H49.4531V71.7656ZM44.5859 56.2891L45.5399 55.9891L45.3197 55.2891H44.5859V56.2891ZM19.4297 56.2891V55.2891H18.6959L18.4757 55.9891L19.4297 56.2891ZM14.5625 71.7656V72.7656H15.2963L15.5164 72.0656L14.5625 71.7656ZM0.0703125 71.7656L-0.875221 71.4401L-1.33157 72.7656H0.0703125V71.7656ZM24.7344 0.125V-0.875H24.021L23.7888 -0.200523L24.7344 0.125ZM39.4453 0.125L40.3913 -0.19923L40.1597 -0.875H39.4453V0.125ZM64 71.7656V72.7656H65.3999L64.946 71.4414L64 71.7656ZM31.8984 16.8594V15.8594H31.166L30.9451 16.5576L31.8984 16.8594ZM22.9844 45.0234L22.031 44.7217L21.619 46.0234H22.9844V45.0234ZM41.0859 45.0234V46.0234H42.4488L42.0399 44.7234L41.0859 45.0234ZM32.2266 16.8594L33.1805 16.5593L32.9603 15.8594H32.2266V16.8594ZM50.4071 71.4656L45.5399 55.9891L43.632 56.5891L48.4992 72.0656L50.4071 71.4656ZM44.5859 55.2891H19.4297V57.2891H44.5859V55.2891ZM18.4757 55.9891L13.6086 71.4656L15.5164 72.0656L20.3836 56.5891L18.4757 55.9891ZM14.5625 70.7656H0.0703125V72.7656H14.5625V70.7656ZM1.01585 72.0911L25.6799 0.450523L23.7888 -0.200523L-0.875221 71.4401L1.01585 72.0911ZM24.7344 1.125H39.4453V-0.875H24.7344V1.125ZM38.4993 0.44923L63.054 72.0899L64.946 71.4414L40.3913 -0.19923L38.4993 0.44923ZM64 70.7656H49.4531V72.7656H64V70.7656ZM30.9451 16.5576L22.031 44.7217L23.9378 45.3252L32.8518 17.1611L30.9451 16.5576ZM22.9844 46.0234H41.0859V44.0234H22.9844V46.0234ZM42.0399 44.7234L33.1805 16.5593L31.2726 17.1594L40.132 45.3235L42.0399 44.7234ZM32.2266 15.8594H31.8984V17.8594H32.2266V15.8594Z" fill="#404040" mask="url(#path-1-outside-1_353_290)"/>
</svg>
