<svg width="58" height="72" viewBox="0 0 58 72" fill="none" xmlns="http://www.w3.org/2000/svg">
<mask id="path-1-outside-1_353_292" maskUnits="userSpaceOnUse" x="-1" y="-1.23438" width="60" height="75" fill="black">
<rect fill="white" x="-1" y="-1.23438" width="60" height="75"/>
<path d="M15.0547 71.8203H0.671875V0.179688H27.7422C35.9453 0.179688 42.3438 2.03906 46.9375 5.75781C51.5312 9.47656 53.8281 14.6719 53.8281 21.3438C53.8281 28.599 50.0182 33.9036 42.3984 37.2578C50.3464 39.6276 54.3203 45.3151 54.3203 54.3203V59.625C54.3203 61.9219 54.612 64.1094 55.1953 66.1875C55.7786 68.2292 56.6719 69.7422 57.875 70.7266V71.7656H43.0547C40.9766 70.0885 39.9375 66.0052 39.9375 59.5156V54.4297C39.9375 50.8568 38.9531 48.0859 36.9844 46.1172C35.0521 44.112 32.2995 43.1094 28.7266 43.1094L15.0547 43.1641V71.8203ZM15.0547 11.1719V32.0625H27.4688C35.4896 32.0625 39.5 28.6719 39.5 21.8906C39.5 18.5365 38.4974 15.9115 36.4922 14.0156C34.487 12.1198 31.5703 11.1719 27.7422 11.1719H15.0547Z"/>
</mask>
<path d="M15.0547 71.8203V72.8203H16.0547V71.8203H15.0547ZM0.671875 71.8203H-0.328125V72.8203H0.671875V71.8203ZM0.671875 0.179688V-0.820312H-0.328125V0.179688H0.671875ZM42.3984 37.2578L41.9956 36.3426L39.5054 37.4387L42.1127 38.2161L42.3984 37.2578ZM55.1953 66.1875L54.2325 66.4578L54.2338 66.4622L55.1953 66.1875ZM57.875 70.7266H58.875V70.2527L58.5082 69.9526L57.875 70.7266ZM57.875 71.7656V72.7656H58.875V71.7656H57.875ZM43.0547 71.7656L42.4267 72.5438L42.7015 72.7656H43.0547V71.7656ZM36.9844 46.1172L36.2643 46.8111L36.2707 46.8177L36.2773 46.8243L36.9844 46.1172ZM28.7266 43.1094V42.1094L28.7226 42.1094L28.7266 43.1094ZM15.0547 43.1641L15.0507 42.1641L14.0547 42.1681V43.1641H15.0547ZM15.0547 11.1719V10.1719H14.0547V11.1719H15.0547ZM15.0547 32.0625H14.0547V33.0625H15.0547V32.0625ZM36.4922 14.0156L35.8052 14.7423L36.4922 14.0156ZM15.0547 70.8203H0.671875V72.8203H15.0547V70.8203ZM1.67188 71.8203V0.179688H-0.328125V71.8203H1.67188ZM0.671875 1.17969H27.7422V-0.820312H0.671875V1.17969ZM27.7422 1.17969C35.8041 1.17969 41.9506 3.00738 46.3083 6.53506L47.5667 4.98057C42.7369 1.07074 36.0866 -0.820312 27.7422 -0.820312V1.17969ZM46.3083 6.53506C50.6354 10.0379 52.8281 14.9297 52.8281 21.3438H54.8281C54.8281 14.414 52.4271 8.9152 47.5667 4.98057L46.3083 6.53506ZM52.8281 21.3438C52.8281 24.7863 51.9279 27.7167 50.1585 30.1803C48.3828 32.6526 45.686 34.7181 41.9956 36.3426L42.8013 38.1731C46.7307 36.4434 49.7487 34.1794 51.7829 31.347C53.8234 28.5059 54.8281 25.1564 54.8281 21.3438H52.8281ZM42.1127 38.2161C45.9141 39.3496 48.6865 41.2492 50.5201 43.8735C52.3592 46.5057 53.3203 49.9619 53.3203 54.3203H55.3203C55.3203 49.6735 54.2944 45.7834 52.1596 42.728C50.0193 39.6648 46.8307 37.5359 42.6842 36.2995L42.1127 38.2161ZM53.3203 54.3203V59.625H55.3203V54.3203H53.3203ZM53.3203 59.625C53.3203 62.0074 53.623 64.2862 54.2325 66.4578L56.1581 65.9172C55.601 63.9325 55.3203 61.8364 55.3203 59.625H53.3203ZM54.2338 66.4622C54.8531 68.6299 55.8326 70.3476 57.2418 71.5005L58.5082 69.9526C57.5111 69.1368 56.7042 67.8285 56.1568 65.9128L54.2338 66.4622ZM56.875 70.7266V71.7656H58.875V70.7266H56.875ZM57.875 70.7656H43.0547V72.7656H57.875V70.7656ZM43.6827 70.9874C42.884 70.3429 42.1808 69.1436 41.6859 67.1987C41.1948 65.2686 40.9375 62.7168 40.9375 59.5156H38.9375C38.9375 62.804 39.1998 65.5387 39.7477 67.6919C40.2918 69.8303 41.1472 71.5113 42.4267 72.5438L43.6827 70.9874ZM40.9375 59.5156V54.4297H38.9375V59.5156H40.9375ZM40.9375 54.4297C40.9375 50.6702 39.8969 47.6155 37.6915 45.4101L36.2773 46.8243C38.0094 48.5564 38.9375 51.0433 38.9375 54.4297H40.9375ZM37.7045 45.4233C35.534 43.171 32.4901 42.1094 28.7266 42.1094V44.1094C32.1088 44.1094 34.5701 45.053 36.2643 46.8111L37.7045 45.4233ZM28.7226 42.1094L15.0507 42.1641L15.0587 44.1641L28.7306 44.1094L28.7226 42.1094ZM14.0547 43.1641V71.8203H16.0547V43.1641H14.0547ZM14.0547 11.1719V32.0625H16.0547V11.1719H14.0547ZM15.0547 33.0625H27.4688V31.0625H15.0547V33.0625ZM27.4688 33.0625C31.5961 33.0625 34.8781 32.1936 37.1378 30.2832C39.4297 28.3455 40.5 25.4835 40.5 21.8906H38.5C38.5 25.079 37.5651 27.3029 35.8466 28.7559C34.0958 30.236 31.3622 31.0625 27.4688 31.0625V33.0625ZM40.5 21.8906C40.5 18.3252 39.4262 15.4134 37.1792 13.289L35.8052 14.7423C37.5686 16.4095 38.5 18.7477 38.5 21.8906H40.5ZM37.1792 13.289C34.9266 11.1592 31.7259 10.1719 27.7422 10.1719V12.1719C31.4147 12.1719 34.0474 13.0803 35.8052 14.7423L37.1792 13.289ZM27.7422 10.1719H15.0547V12.1719H27.7422V10.1719Z" fill="#404040" mask="url(#path-1-outside-1_353_292)"/>
</svg>
