<svg width="56" height="74" viewBox="0 0 56 74" fill="none" xmlns="http://www.w3.org/2000/svg">
<mask id="path-1-outside-1_353_286" maskUnits="userSpaceOnUse" x="-1" y="-1.23438" width="58" height="77" fill="black">
<rect fill="white" x="-1" y="-1.23438" width="58" height="77"/>
<path d="M29.3047 63.0312H29.4141C33.2786 63.0312 36.25 62.2474 38.3281 60.6797C40.4427 59.0755 41.5 56.9062 41.5 54.1719C41.5 51.401 40.5339 49.1953 38.6016 47.5547C36.7057 45.8776 33.2786 44.2917 28.3203 42.7969C19.3151 40.2083 12.7344 37.2188 8.57812 33.8281C4.45833 30.401 2.39844 25.8073 2.39844 20.0469C2.39844 14.25 4.89583 9.49219 9.89062 5.77344C14.8854 2.05469 21.2839 0.195312 29.0859 0.195312C36.9245 0.195312 43.3229 2.27344 48.2812 6.42969C53.2396 10.5495 55.6276 15.7266 55.4453 21.9609L55.3906 22.2344H41.4453C41.4453 18.8438 40.3151 16.1458 38.0547 14.1406C35.8307 12.1354 32.7865 11.1328 28.9219 11.1328C25.0573 11.1328 22.0495 11.9714 19.8984 13.6484C17.7839 15.2891 16.7266 17.4036 16.7266 19.9922C16.7266 22.5443 17.8021 24.6042 19.9531 26.1719C22.1406 27.7031 26.0781 29.362 31.7656 31.1484C39.8958 33.4089 45.9297 36.362 49.8672 40.0078C53.8411 43.6172 55.8281 48.3932 55.8281 54.3359C55.8281 60.2786 53.4219 65.0365 48.6094 68.6094C43.8333 72.1458 37.4167 73.9141 29.3594 73.9141C24.0729 73.9141 19.2422 73.0391 14.8672 71.2891C10.4922 69.5026 6.97396 66.8411 4.3125 63.3047C1.65104 59.7682 0.356771 55.6667 0.429688 51L0.539062 50.6719H14.4844C14.4844 58.9115 19.4245 63.0312 29.3047 63.0312Z"/>
</mask>
<path d="M38.3281 60.6797L38.9304 61.478L38.9325 61.4764L38.3281 60.6797ZM38.6016 47.5547L37.939 48.3037L37.9466 48.3104L37.9543 48.317L38.6016 47.5547ZM28.3203 42.7969L28.609 41.8394L28.5966 41.8358L28.3203 42.7969ZM8.57812 33.8281L7.93858 34.5969L7.946 34.603L8.57812 33.8281ZM48.2812 6.42969L47.6388 7.19606L47.6422 7.19883L48.2812 6.42969ZM55.4453 21.9609L56.4259 22.1571L56.4424 22.0744L56.4449 21.9902L55.4453 21.9609ZM55.3906 22.2344V23.2344H56.2104L56.3712 22.4305L55.3906 22.2344ZM41.4453 22.2344H40.4453V23.2344H41.4453V22.2344ZM38.0547 14.1406L37.385 14.8833L37.3911 14.8887L38.0547 14.1406ZM19.8984 13.6484L20.5114 14.4385L20.5133 14.4371L19.8984 13.6484ZM19.9531 26.1719L19.3641 26.98L19.3718 26.9856L19.3797 26.9911L19.9531 26.1719ZM31.7656 31.1484L31.466 32.1025L31.4818 32.1075L31.4978 32.1119L31.7656 31.1484ZM49.8672 40.0078L49.1877 40.7416L49.1949 40.7481L49.8672 40.0078ZM48.6094 68.6094L49.2045 69.413L49.2055 69.4123L48.6094 68.6094ZM14.8672 71.2891L14.4891 72.2149L14.4958 72.2175L14.8672 71.2891ZM0.429688 51L-0.518996 50.6838L-0.56778 50.8301L-0.57019 50.9844L0.429688 51ZM0.539062 50.6719V49.6719H-0.181697L-0.409621 50.3556L0.539062 50.6719ZM14.4844 50.6719H15.4844V49.6719H14.4844V50.6719ZM29.3047 64.0312H29.4141V62.0312H29.3047V64.0312ZM29.4141 64.0312C33.3954 64.0312 36.6127 63.2264 38.9304 61.478L37.7259 59.8814C35.8873 61.2684 33.1619 62.0312 29.4141 62.0312V64.0312ZM38.9325 61.4764C41.305 59.6765 42.5 57.208 42.5 54.1719H40.5C40.5 56.6045 39.5804 58.4745 37.7237 59.883L38.9325 61.4764ZM42.5 54.1719C42.5 51.1384 41.4274 48.6422 39.2488 46.7924L37.9543 48.317C39.6403 49.7485 40.5 51.6637 40.5 54.1719H42.5ZM39.2641 46.8057C37.1966 44.9767 33.5906 43.3413 28.609 41.8394L28.0317 43.7543C32.9667 45.2421 36.2149 46.7785 37.939 48.3037L39.2641 46.8057ZM28.5966 41.8358C19.6387 39.2608 13.211 36.317 9.21025 33.0533L7.946 34.603C12.2578 38.1205 18.9915 41.1558 28.044 43.758L28.5966 41.8358ZM9.21764 33.0593C5.34506 29.8379 3.39844 25.5356 3.39844 20.0469H1.39844C1.39844 26.079 3.5716 30.9642 7.93861 34.5969L9.21764 33.0593ZM3.39844 20.0469C3.39844 14.5923 5.72459 10.1219 10.4878 6.57554L9.29344 4.97134C4.06707 8.8625 1.39844 13.9077 1.39844 20.0469H3.39844ZM10.4878 6.57554C15.2705 3.01472 21.4439 1.19531 29.0859 1.19531V-0.804688C21.1238 -0.804688 14.5004 1.09465 9.29344 4.97134L10.4878 6.57554ZM29.0859 1.19531C36.7412 1.19531 42.8966 3.2209 47.6389 7.19606L48.9236 5.66332C43.7493 1.32598 37.1077 -0.804688 29.0859 -0.804688V1.19531ZM47.6422 7.19883C52.3732 11.1298 54.6187 16.0166 54.4457 21.9317L56.4449 21.9902C56.6365 15.4366 54.1059 9.96918 48.9203 5.66054L47.6422 7.19883ZM54.4647 21.7648L54.41 22.0383L56.3712 22.4305L56.4259 22.1571L54.4647 21.7648ZM55.3906 21.2344H41.4453V23.2344H55.3906V21.2344ZM42.4453 22.2344C42.4453 18.5967 41.2201 15.6119 38.7183 13.3926L37.3911 14.8887C39.4101 16.6797 40.4453 19.0908 40.4453 22.2344H42.4453ZM38.7243 13.3979C36.2683 11.1835 32.9599 10.1328 28.9219 10.1328V12.1328C32.6131 12.1328 35.3932 13.0874 37.3851 14.8833L38.7243 13.3979ZM28.9219 10.1328C24.9252 10.1328 21.6704 10.9989 19.2836 12.8598L20.5133 14.4371C22.4285 12.9439 25.1894 12.1328 28.9219 12.1328V10.1328ZM19.2854 12.8584C16.9364 14.6809 15.7266 17.0826 15.7266 19.9922H17.7266C17.7266 17.7247 18.6313 15.8972 20.5114 14.4385L19.2854 12.8584ZM15.7266 19.9922C15.7266 22.8797 16.9679 25.2336 19.3641 26.98L20.5421 25.3637C18.6363 23.9747 17.7266 22.2089 17.7266 19.9922H15.7266ZM19.3797 26.9911C21.7036 28.6178 25.7709 30.3136 31.466 32.1025L32.0653 30.1944C26.3854 28.4103 22.5777 26.7884 20.5266 25.3526L19.3797 26.9911ZM31.4978 32.1119C39.5536 34.3516 45.4154 37.2486 49.1878 40.7416L50.5466 39.2741C46.444 35.4753 40.2381 32.4661 32.0335 30.185L31.4978 32.1119ZM49.1949 40.7481C52.9365 44.1464 54.8281 48.6415 54.8281 54.3359H56.8281C56.8281 48.1449 54.7458 43.0879 50.5395 39.2676L49.1949 40.7481ZM54.8281 54.3359C54.8281 59.959 52.5743 64.4203 48.0133 67.8065L49.2055 69.4123C54.2695 65.6526 56.8281 60.5983 56.8281 54.3359H54.8281ZM48.0143 67.8057C43.4624 71.1762 37.2775 72.9141 29.3594 72.9141V74.9141C37.5558 74.9141 44.2043 73.1155 49.2045 69.413L48.0143 67.8057ZM29.3594 72.9141C24.1847 72.9141 19.4819 72.0579 15.2386 70.3606L14.4958 72.2175C19.0025 74.0202 23.9612 74.9141 29.3594 74.9141V72.9141ZM15.2452 70.3633C11.0255 68.6402 7.6571 66.0859 5.11151 62.7034L3.51349 63.906C6.29082 67.5964 9.95887 70.365 14.4892 72.2149L15.2452 70.3633ZM5.11151 62.7034C2.59132 59.3546 1.35992 55.473 1.42957 51.0156L-0.57019 50.9844C-0.646377 55.8603 0.710761 60.1818 3.51349 63.906L5.11151 62.7034ZM1.37837 51.3162L1.48775 50.9881L-0.409621 50.3556L-0.518996 50.6838L1.37837 51.3162ZM0.539062 51.6719H14.4844V49.6719H0.539062V51.6719ZM13.4844 50.6719C13.4844 54.9984 14.79 58.4086 17.549 60.7094C20.2732 62.9812 24.2502 64.0312 29.3047 64.0312V62.0312C24.479 62.0312 21.0458 61.0214 18.8299 59.1734C16.6488 57.3545 15.4844 54.585 15.4844 50.6719H13.4844Z" fill="#404040" mask="url(#path-1-outside-1_353_286)"/>
</svg>
