<svg width="56" height="72" viewBox="0 0 56 72" fill="none" xmlns="http://www.w3.org/2000/svg">
<mask id="path-1-outside-1_353_288" maskUnits="userSpaceOnUse" x="-1.0625" y="-1.23438" width="58" height="74" fill="black">
<rect fill="white" x="-1.0625" y="-1.23438" width="58" height="74"/>
<path d="M55.1562 0.125V11.1719H34.8672V71.7656H20.4844V11.1719H0.304688V0.125H55.1562Z"/>
</mask>
<path d="M55.1562 0.125H56.1562V-0.875H55.1562V0.125ZM55.1562 11.1719V12.1719H56.1562V11.1719H55.1562ZM34.8672 11.1719V10.1719H33.8672V11.1719H34.8672ZM34.8672 71.7656V72.7656H35.8672V71.7656H34.8672ZM20.4844 71.7656H19.4844V72.7656H20.4844V71.7656ZM20.4844 11.1719H21.4844V10.1719H20.4844V11.1719ZM0.304688 11.1719H-0.695312V12.1719H0.304688V11.1719ZM0.304688 0.125V-0.875H-0.695312V0.125H0.304688ZM54.1562 0.125V11.1719H56.1562V0.125H54.1562ZM55.1562 10.1719H34.8672V12.1719H55.1562V10.1719ZM33.8672 11.1719V71.7656H35.8672V11.1719H33.8672ZM34.8672 70.7656H20.4844V72.7656H34.8672V70.7656ZM21.4844 71.7656V11.1719H19.4844V71.7656H21.4844ZM20.4844 10.1719H0.304688V12.1719H20.4844V10.1719ZM1.30469 11.1719V0.125H-0.695312V11.1719H1.30469ZM0.304688 1.125H55.1562V-0.875H0.304688V1.125Z" fill="#404040" mask="url(#path-1-outside-1_353_288)"/>
</svg>
