<svg width="55" height="72" viewBox="0 0 55 72" fill="none" xmlns="http://www.w3.org/2000/svg">
<mask id="path-1-outside-1_353_294" maskUnits="userSpaceOnUse" x="-1.32812" y="-1.23438" width="58" height="74" fill="black">
<rect fill="white" x="-1.32812" y="-1.23438" width="58" height="74"/>
<path d="M54.8906 0.125V11.1719H34.6016V71.7656H20.2188V11.1719H0.0390625V0.125H54.8906Z"/>
</mask>
<path d="M54.8906 0.125H55.8906V-0.875H54.8906V0.125ZM54.8906 11.1719V12.1719H55.8906V11.1719H54.8906ZM34.6016 11.1719V10.1719H33.6016V11.1719H34.6016ZM34.6016 71.7656V72.7656H35.6016V71.7656H34.6016ZM20.2188 71.7656H19.2188V72.7656H20.2188V71.7656ZM20.2188 11.1719H21.2188V10.1719H20.2188V11.1719ZM0.0390625 11.1719H-0.960938V12.1719H0.0390625V11.1719ZM0.0390625 0.125V-0.875H-0.960938V0.125H0.0390625ZM53.8906 0.125V11.1719H55.8906V0.125H53.8906ZM54.8906 10.1719H34.6016V12.1719H54.8906V10.1719ZM33.6016 11.1719V71.7656H35.6016V11.1719H33.6016ZM34.6016 70.7656H20.2188V72.7656H34.6016V70.7656ZM21.2188 71.7656V11.1719H19.2188V71.7656H21.2188ZM20.2188 10.1719H0.0390625V12.1719H20.2188V10.1719ZM1.03906 11.1719V0.125H-0.960938V11.1719H1.03906ZM0.0390625 1.125H54.8906V-0.875H0.0390625V1.125Z" fill="#404040" mask="url(#path-1-outside-1_353_294)"/>
</svg>
