<svg width="19" height="22" viewBox="0 0 19 22" fill="none" xmlns="http://www.w3.org/2000/svg">
<path d="M18.375 9.23828V5.66992C18.334 5.66992 18.334 5.66992 18.334 5.66992C17.3496 5.66992 16.4062 5.38281 15.627 4.84961C14.4785 4.11133 13.6582 2.92188 13.4121 1.56836C13.3301 1.28125 13.3301 0.994141 13.3301 0.707031C13.3301 0.666016 13.3301 0.666016 13.3301 0.625H9.7207V14.9805C9.7207 16.6621 8.32617 18.0566 6.64453 18.0566C4.96289 18.0566 3.56836 16.6621 3.56836 14.9805C3.56836 13.2988 4.96289 11.9043 6.64453 11.9043C6.97266 11.9043 7.25977 11.9453 7.58789 12.0684V8.37695C7.25977 8.33594 6.97266 8.29492 6.64453 8.29492C2.95312 8.29492 0 11.2891 0 14.9805C0 18.6719 2.95312 21.625 6.64453 21.625C10.3359 21.625 13.3301 18.6719 13.3301 14.9805V7.63867C14.7246 8.66406 16.4473 9.23828 18.334 9.23828H18.375Z" fill="white"/>
</svg>
