<svg width="169" height="72" viewBox="0 0 169 72" fill="none" xmlns="http://www.w3.org/2000/svg">
<mask id="path-1-outside-1_353_540" maskUnits="userSpaceOnUse" x="-1" y="-1" width="171" height="74" fill="black">
<rect fill="white" x="-1" y="-1" width="171" height="74"/>
<path d="M29.3828 40.2812H15.0547V60.9531H28.2891C36.1276 60.9531 40.0469 57.6719 40.0469 51.1094C40.0469 43.8906 36.4922 40.2812 29.3828 40.2812ZM15.0547 11.4062V30.3828H25.3906C29.2917 30.3828 32.263 29.599 34.3047 28.0312C36.3464 26.4271 37.3672 24.0391 37.3672 20.8672C37.3672 17.6953 36.3464 15.3255 34.3047 13.7578C32.263 12.1901 29.1276 11.4062 24.8984 11.4062H15.0547ZM28.2891 72H0.671875V0.359375H24.8984C33.5026 0.359375 40.1198 2.01823 44.75 5.33594C49.4167 8.61719 51.75 13.5026 51.75 19.9922C51.75 23.3464 50.8568 26.3177 49.0703 28.9062C47.3203 31.4948 44.7865 33.4453 41.4688 34.7578C45.6615 35.6693 48.8516 37.6016 51.0391 40.5547C53.2266 43.4714 54.3203 46.9896 54.3203 51.1094C54.3203 57.9635 52.0781 63.1589 47.5938 66.6953C43.1458 70.2318 36.7109 72 28.2891 72ZM65.4219 0.359375H84.1797L102.445 53.1328H102.773L121.148 0.359375H139.961V72H125.578V50.6172L126.945 19.0078L126.672 18.9531L107.477 72H97.8516L78.7109 19.1172L78.4375 19.1719L79.8047 50.6172V72H65.4219V0.359375ZM168.617 0.359375V72H154.289V0.359375H168.617Z"/>
</mask>
<path d="M15.0547 40.2812V39.2812H14.0547V40.2812H15.0547ZM15.0547 60.9531H14.0547V61.9531H15.0547V60.9531ZM15.0547 11.4062V10.4062H14.0547V11.4062H15.0547ZM15.0547 30.3828H14.0547V31.3828H15.0547V30.3828ZM34.3047 28.0312L34.9138 28.8244L34.9225 28.8176L34.3047 28.0312ZM0.671875 72H-0.328125V73H0.671875V72ZM0.671875 0.359375V-0.640625H-0.328125V0.359375H0.671875ZM44.75 5.33594L44.1675 6.14884L44.1748 6.15397L44.75 5.33594ZM49.0703 28.9062L48.2472 28.3382L48.2419 28.3462L49.0703 28.9062ZM41.4688 34.7578L41.1009 33.8279L38.045 35.0369L41.2563 35.735L41.4688 34.7578ZM51.0391 40.5547L50.2355 41.1499L50.2391 41.1547L51.0391 40.5547ZM47.5938 66.6953L46.9745 65.9101L46.9714 65.9126L47.5938 66.6953ZM29.3828 39.2812H15.0547V41.2812H29.3828V39.2812ZM14.0547 40.2812V60.9531H16.0547V40.2812H14.0547ZM15.0547 61.9531H28.2891V59.9531H15.0547V61.9531ZM28.2891 61.9531C32.3234 61.9531 35.5355 61.1124 37.7494 59.2589C39.9973 57.377 41.0469 54.596 41.0469 51.1094H39.0469C39.0469 54.1852 38.1369 56.3261 36.4655 57.7254C34.7601 59.1532 32.0932 59.9531 28.2891 59.9531V61.9531ZM41.0469 51.1094C41.0469 47.3497 40.121 44.3455 38.0933 42.2866C36.0629 40.2249 33.0955 39.2812 29.3828 39.2812V41.2812C32.7795 41.2812 35.1441 42.1423 36.6684 43.69C38.1954 45.2405 39.0469 47.6503 39.0469 51.1094H41.0469ZM14.0547 11.4062V30.3828H16.0547V11.4062H14.0547ZM15.0547 31.3828H25.3906V29.3828H15.0547V31.3828ZM25.3906 31.3828C29.4041 31.3828 32.6277 30.5797 34.9137 28.8244L33.6957 27.2381C31.8983 28.6182 29.1792 29.3828 25.3906 29.3828V31.3828ZM34.9225 28.8176C37.2591 26.9817 38.3672 24.2706 38.3672 20.8672H36.3672C36.3672 23.8076 35.4336 25.8725 33.6869 27.2449L34.9225 28.8176ZM38.3672 20.8672C38.3672 17.4646 37.2591 14.7656 34.9137 12.9647L33.6957 14.551C35.4336 15.8854 36.3672 17.926 36.3672 20.8672H38.3672ZM34.9137 12.9647C32.6166 11.2008 29.2178 10.4062 24.8984 10.4062V12.4062C29.0374 12.4062 31.9095 13.1794 33.6957 14.551L34.9137 12.9647ZM24.8984 10.4062H15.0547V12.4062H24.8984V10.4062ZM28.2891 71H0.671875V73H28.2891V71ZM1.67188 72V0.359375H-0.328125V72H1.67188ZM0.671875 1.35938H24.8984V-0.640625H0.671875V1.35938ZM24.8984 1.35938C33.3943 1.35938 39.7739 3.00057 44.1676 6.14881L45.3324 4.52307C40.4657 1.03589 33.611 -0.640625 24.8984 -0.640625V1.35938ZM44.1748 6.15397C48.5354 9.22002 50.75 13.7764 50.75 19.9922H52.75C52.75 13.2288 50.2979 8.01436 45.3252 4.51791L44.1748 6.15397ZM50.75 19.9922C50.75 23.1577 49.9107 25.928 48.2473 28.3382L49.8933 29.4743C51.8029 26.7074 52.75 23.535 52.75 19.9922H50.75ZM48.2419 28.3462C46.6201 30.745 44.2588 32.5787 41.1009 33.8279L41.8366 35.6877C45.3141 34.312 48.0205 32.2446 49.8988 29.4663L48.2419 28.3462ZM41.2563 35.735C45.2542 36.6041 48.2159 38.4235 50.2355 41.1499L51.8426 39.9595C49.4872 36.7796 46.0687 34.7344 41.6812 33.7806L41.2563 35.735ZM50.2391 41.1547C52.2801 43.8761 53.3203 47.1765 53.3203 51.1094H55.3203C55.3203 46.8027 54.173 43.0666 51.8391 39.9547L50.2391 41.1547ZM53.3203 51.1094C53.3203 57.7256 51.1695 62.6019 46.9745 65.9101L48.213 67.4805C52.9868 63.7158 55.3203 58.2015 55.3203 51.1094H53.3203ZM46.9714 65.9126C42.7679 69.2547 36.5897 71 28.2891 71V73C36.8322 73 43.5237 71.2089 48.2161 67.4781L46.9714 65.9126ZM65.4219 0.359375V-0.640625H64.4219V0.359375H65.4219ZM84.1797 0.359375L85.1247 0.0322981L84.8918 -0.640625H84.1797V0.359375ZM102.445 53.1328L101.5 53.4599L101.733 54.1328H102.445V53.1328ZM102.773 53.1328V54.1328H103.484L103.718 53.4616L102.773 53.1328ZM121.148 0.359375V-0.640625H120.438L120.204 0.0305507L121.148 0.359375ZM139.961 0.359375H140.961V-0.640625H139.961V0.359375ZM139.961 72V73H140.961V72H139.961ZM125.578 72H124.578V73H125.578V72ZM125.578 50.6172L124.579 50.574L124.578 50.5956V50.6172H125.578ZM126.945 19.0078L127.944 19.051L127.981 18.1952L127.141 18.0272L126.945 19.0078ZM126.672 18.9531L126.868 17.9725L126.024 17.8038L125.732 18.6129L126.672 18.9531ZM107.477 72V73H108.178L108.417 72.3403L107.477 72ZM97.8516 72L96.9113 72.3403L97.15 73H97.8516V72ZM78.7109 19.1172L79.6512 18.7769L79.3584 17.9679L78.5148 18.1366L78.7109 19.1172ZM78.4375 19.1719L78.2414 18.1913L77.4012 18.3593L77.4384 19.2153L78.4375 19.1719ZM79.8047 50.6172H80.8047V50.5955L80.8037 50.5738L79.8047 50.6172ZM79.8047 72V73H80.8047V72H79.8047ZM65.4219 72H64.4219V73H65.4219V72ZM65.4219 1.35938H84.1797V-0.640625H65.4219V1.35938ZM83.2347 0.686452L101.5 53.4599L103.39 52.8057L85.1247 0.0322981L83.2347 0.686452ZM102.445 54.1328H102.773V52.1328H102.445V54.1328ZM103.718 53.4616L122.093 0.688199L120.204 0.0305507L101.829 52.804L103.718 53.4616ZM121.148 1.35938H139.961V-0.640625H121.148V1.35938ZM138.961 0.359375V72H140.961V0.359375H138.961ZM139.961 71H125.578V73H139.961V71ZM126.578 72V50.6172H124.578V72H126.578ZM126.577 50.6604L127.944 19.051L125.946 18.9646L124.579 50.574L126.577 50.6604ZM127.141 18.0272L126.868 17.9725L126.476 19.9337L126.749 19.9884L127.141 18.0272ZM125.732 18.6129L106.536 71.6597L108.417 72.3403L127.612 19.2934L125.732 18.6129ZM107.477 71H97.8516V73H107.477V71ZM98.7919 71.6597L79.6512 18.7769L77.7706 19.4575L96.9113 72.3403L98.7919 71.6597ZM78.5148 18.1366L78.2414 18.1913L78.6336 20.1525L78.9071 20.0978L78.5148 18.1366ZM77.4384 19.2153L78.8056 50.6606L80.8037 50.5738L79.4366 19.1284L77.4384 19.2153ZM78.8047 50.6172V72H80.8047V50.6172H78.8047ZM79.8047 71H65.4219V73H79.8047V71ZM66.4219 72V0.359375H64.4219V72H66.4219ZM168.617 0.359375H169.617V-0.640625H168.617V0.359375ZM168.617 72V73H169.617V72H168.617ZM154.289 72H153.289V73H154.289V72ZM154.289 0.359375V-0.640625H153.289V0.359375H154.289ZM167.617 0.359375V72H169.617V0.359375H167.617ZM168.617 71H154.289V73H168.617V71ZM155.289 72V0.359375H153.289V72H155.289ZM154.289 1.35938H168.617V-0.640625H154.289V1.35938Z" fill="#404040" mask="url(#path-1-outside-1_353_540)"/>
</svg>
